<svg xmlns="http://www.w3.org/2000/svg" viewBox="0 0 128 128"><defs><style>.cls-1{fill:#80effe;}.cls-2{fill:#2d1582;}.cls-3,.cls-6{fill:#6c5ba7;}.cls-4{fill:#42c5f4;}.cls-12,.cls-5{fill:#fff;}.cls-10,.cls-6{stroke:#fff;}.cls-11,.cls-6,.cls-7,.cls-8,.cls-9{stroke-linecap:round;}.cls-10,.cls-11,.cls-12,.cls-14,.cls-6,.cls-7,.cls-8,.cls-9{stroke-miterlimit:10;}.cls-6{stroke-dasharray:2.83;}.cls-10,.cls-11,.cls-14,.cls-7,.cls-8,.cls-9{fill:none;}.cls-12,.cls-7,.cls-9{stroke:#80effe;}.cls-7{stroke-width:0.44px;}.cls-14,.cls-8{stroke:#ef3574;}.cls-8{stroke-width:0.57px;}.cls-9{stroke-width:1.38px;}.cls-10{stroke-width:0.58px;}.cls-11{stroke:#6c5ba7;stroke-width:1.74px;}.cls-13{fill:#ffaa83;}.cls-14{stroke-width:0.09px;}.cls-15{fill:#221061;}.cls-16{fill:#ef3574;}.cls-17{fill:#99664f;}</style></defs><title>2</title><g id="icon"><path class="cls-1" d="M125.76,109.18c0,3.15-26.64,5.71-63.63,5.71s-59.89-2.56-59.89-5.71,22.9-5.71,59.89-5.71S125.76,106,125.76,109.18Z"/><path class="cls-2" d="M122.34,26.26l-4.75,63.91a3.66,3.66,0,0,1-3.65,3.38H11.34A3.66,3.66,0,0,1,7.69,89.6l4.75-63.91a3.66,3.66,0,0,1,3.65-3.38H118.69A3.66,3.66,0,0,1,122.34,26.26Z"/><path class="cls-3" d="M125.58,26.26l-4.75,63.91a3.66,3.66,0,0,1-3.65,3.38h-3.24a3.66,3.66,0,0,0,3.65-3.38l4.75-63.91a3.66,3.66,0,0,0-3.65-3.94h3.24A3.66,3.66,0,0,1,125.58,26.26Z"/><path class="cls-4" d="M119.1,28.1a2.46,2.46,0,0,0-2.45-2.67H18a2.46,2.46,0,0,0-2.45,2.26l-4.6,56.5a2.46,2.46,0,0,0,2.45,2.67h70L119,29.57Z"/><path class="cls-4" d="M83.36,86.85H112a2.46,2.46,0,0,0,2.45-2.26l4.48-55Z"/><polygon class="cls-1" points="78.13 101.68 52.89 101.68 49.64 93.54 74.88 93.54 78.13 101.68"/><path class="cls-2" d="M80.26,105.26h-22c0-3.07,2.26-3.58,2.26-3.58H78.13l-3.26-8.14H78.7l3.61,8.64A2.22,2.22,0,0,1,80.26,105.26Z"/><path class="cls-3" d="M60.56,101.68s-2.26.5-2.26,3.58H33.42a3.21,3.21,0,0,1,3.17-3.58Z"/><path class="cls-5" d="M40.84,84.58H21.93a3.45,3.45,0,0,1-3.44-3.74l1.1-12.75A3.45,3.45,0,0,1,23,64.93H41.94a3.45,3.45,0,0,1,3.44,3.74l-1.1,12.75A3.45,3.45,0,0,1,40.84,84.58Z"/><path class="cls-5" d="M72.61,84.58H53.7a3.45,3.45,0,0,1-3.44-3.74l1.1-12.75a3.45,3.45,0,0,1,3.44-3.15H73.71a3.45,3.45,0,0,1,3.44,3.74L76,81.43A3.45,3.45,0,0,1,72.61,84.58Z"/><path class="cls-5" d="M106.56,59.8H87.64a3.45,3.45,0,0,1-3.44-3.73l.69-8.59a3.45,3.45,0,0,1,3.44-3.17h18.92A3.45,3.45,0,0,1,110.69,48L110,56.62A3.45,3.45,0,0,1,106.56,59.8Z"/><path class="cls-5" d="M105.45,71.83H86.54a3.45,3.45,0,0,1-3.43-3.78h0a3.45,3.45,0,0,1,3.43-3.12h18.91a3.45,3.45,0,0,1,3.43,3.78h0A3.45,3.45,0,0,1,105.45,71.83Z"/><path class="cls-5" d="M104.42,84.58H85.51a3.45,3.45,0,0,1-3.43-3.78h0a3.45,3.45,0,0,1,3.43-3.12h18.91a3.45,3.45,0,0,1,3.43,3.78h0A3.45,3.45,0,0,1,104.42,84.58Z"/><path class="cls-2" d="M74.75,60.24H24.06a3.45,3.45,0,0,1-3.44-3.73l.73-9a3.45,3.45,0,0,1,3.44-3.17H75.48A3.45,3.45,0,0,1,78.91,48l-.73,9A3.45,3.45,0,0,1,74.75,60.24Z"/><path class="cls-6" d="M108.19,39.91H25.73a3.45,3.45,0,0,1-3.44-3.73l.46-5.68a3.45,3.45,0,0,1,3.44-3.17h82.46a3.45,3.45,0,0,1,3.44,3.73l-.46,5.68A3.45,3.45,0,0,1,108.19,39.91Z"/><circle class="cls-7" cx="95.83" cy="68.43" r="1.61"/><path class="cls-1" d="M95.16,66.8,94.1,68.27l-.71-.52a.17.17,0,0,1,0-.24l.87-1.2a.17.17,0,0,1,.24,0Z"/><path class="cls-1" d="M94.14,67.92l.47,1.76-.85.23a.17.17,0,0,1-.21-.12l-.38-1.43a.17.17,0,0,1,.12-.21Z"/><path class="cls-1" d="M94.36,69.43l1.66.74-.36.81a.17.17,0,0,1-.22.09l-1.35-.6a.17.17,0,0,1-.09-.22Z"/><path class="cls-1" d="M95.68,70.2l1.62-.83.4.79a.17.17,0,0,1-.07.23l-1.32.67a.17.17,0,0,1-.23-.07Z"/><path class="cls-1" d="M97.1,69.67l.38-1.78.86.18a.17.17,0,0,1,.13.2l-.31,1.45a.17.17,0,0,1-.2.13Z"/><path class="cls-1" d="M97.59,68.22l-1.15-1.41.69-.56a.17.17,0,0,1,.24,0l.93,1.15a.17.17,0,0,1,0,.24Z"/><path class="cls-1" d="M96.77,66.94H94.95v-.88a.17.17,0,0,1,.17-.17H96.6a.17.17,0,0,1,.17.17Z"/><path class="cls-3" d="M23.22,82.87H19.94l.56-5.19A.53.53,0,0,1,21,77.2h2.21a.53.53,0,0,1,.53.59Z"/><path class="cls-3" d="M27.76,82.87H24.48l.9-8.37a.53.53,0,0,1,.53-.47h2.21a.53.53,0,0,1,.53.59Z"/><path class="cls-3" d="M32.63,82.87H29.35l1.3-12a.53.53,0,0,1,.53-.47h2.21a.53.53,0,0,1,.53.59Z"/><path class="cls-3" d="M37.34,82.87H34.06l1.08-10a.53.53,0,0,1,.53-.47h2.21a.53.53,0,0,1,.53.59Z"/><path class="cls-3" d="M42.33,82.87H39L40.53,69.1a.53.53,0,0,1,.53-.47h2.21a.53.53,0,0,1,.53.59Z"/><path class="cls-8" d="M22.3,73.51c1.36-1.14,2.68-2.32,5.24-2.32s3.45-3.32,5.55-3.37,2,2.09,4.06,2,2.7-3.52,5.89-3.56"/><path class="cls-1" d="M44.15,50.24H24.55a1.27,1.27,0,0,1-1.29-1.44h0a1.65,1.65,0,0,1,1.6-1.44h19.6a1.27,1.27,0,0,1,1.29,1.44h0A1.65,1.65,0,0,1,44.15,50.24Z"/><path class="cls-1" d="M43.49,56.3H23.89a1.27,1.27,0,0,1-1.29-1.44h0a1.65,1.65,0,0,1,1.6-1.44h19.6a1.27,1.27,0,0,1,1.29,1.44h0A1.65,1.65,0,0,1,43.49,56.3Z"/><path class="cls-1" d="M73.74,50.24H54.14a1.27,1.27,0,0,1-1.29-1.44h0a1.65,1.65,0,0,1,1.6-1.44h19.6a1.27,1.27,0,0,1,1.29,1.44h0A1.65,1.65,0,0,1,73.74,50.24Z"/><path class="cls-3" d="M67.89,50.24H54.14a1.27,1.27,0,0,1-1.29-1.44h0a1.65,1.65,0,0,1,1.6-1.44H68.2C70.13,47.35,69.82,50.24,67.89,50.24Z"/><path class="cls-1" d="M73.09,56.3H53.48a1.27,1.27,0,0,1-1.29-1.44h0a1.65,1.65,0,0,1,1.6-1.44H73.4a1.27,1.27,0,0,1,1.29,1.44h0A1.65,1.65,0,0,1,73.09,56.3Z"/><path class="cls-3" d="M64.67,56.3H53.48a1.27,1.27,0,0,1-1.29-1.44h0a1.65,1.65,0,0,1,1.6-1.44H65C66.9,53.41,66.6,56.3,64.67,56.3Z"/><path class="cls-1" d="M103.66,51.73a7.35,7.35,0,0,1-7.14,6.43,5.67,5.67,0,0,1-5.75-6.43,7.35,7.35,0,0,1,7.14-6.43A5.67,5.67,0,0,1,103.66,51.73Z"/><line class="cls-9" x1="53.77" y1="69.4" x2="74.97" y2="69.4"/><line class="cls-9" x1="53.37" y1="73.08" x2="74.57" y2="73.08"/><line class="cls-9" x1="52.97" y1="76.76" x2="74.17" y2="76.76"/><line class="cls-9" x1="52.58" y1="80.44" x2="73.78" y2="80.44"/><path class="cls-1" d="M104.69,83.87H97.91a.27.27,0,0,1-.27-.3l.47-4.33a.34.34,0,0,1,.33-.3h6.78a.27.27,0,0,1,.27.3L105,83.56A.34.34,0,0,1,104.69,83.87Z"/><path class="cls-10" d="M97.65,78.62l3.69,2.62a.45.45,0,0,0,.49,0l4.4-2.62"/><line class="cls-11" x1="32.32" y1="46.99" x2="32.09" y2="50.67"/><line class="cls-11" x1="68.92" y1="46.95" x2="68.69" y2="50.63"/><line class="cls-11" x1="65.6" y1="54.53" x2="65.46" y2="56.69"/><rect class="cls-12" x="13.97" y="30.51" width="92.46" height="14.21" rx="3.59" ry="3.59" transform="translate(-0.08 0.13) rotate(-0.12)"/><path class="cls-13" d="M42.41,41.57c-.29-.26-1.15.36-1.49.65,0-.36,1-1,.51-1.21S40,42,39.6,42.76s-.91.93-1.16,1.29-.73,1.43-1.07,1.49c-.06,0-.2-.14-.25-.27h-.94a1.82,1.82,0,0,1,.06.24c0,.59-.2,1.37.31,2a3.14,3.14,0,0,1,.13,3.21c-.73,1.81-1.88,3.71-2.34,4.67a.64.64,0,0,1-.1.15,27.29,27.29,0,0,0,1.89,2.53A2.84,2.84,0,0,0,38,55.7c.23-1,1-5.44,1.1-6.15a16.29,16.29,0,0,1,1-3c.34-.9,2-2,2.14-2.22s-.08-.34-.4-.2a3.6,3.6,0,0,0-.76.52c.06-.11,1-1.84,1.2-2.14s-.27-.34-.38-.15C41.82,42,42.7,41.83,42.41,41.57Z"/><path class="cls-14" d="M37.14,36.81h0"/><path class="cls-13" d="M25.93,39c-.22-.3-.11-.44,0-1.42a3.7,3.7,0,0,0-.12-1.17c0,.24-2.46-.72-4.12.72s-2.62,5.36-2.62,5.36-.12,3-1.73,3.65S21,47.8,21,47.8l1.95-2.13.16-1.32a27.79,27.79,0,0,0,2.75-1c.49-.28.43-2.16.36-2.67s.49-.25.54-.6S26.14,39.34,25.93,39Z"/><path class="cls-2" d="M25.32,37.81c-.84.9-2,.42-2.64,1.28a3.55,3.55,0,0,0-.59,4.13c-3.67.17-5.12-2.31-5.31-4.31-.06-.62,0-7.26,6.34-5.63C25.33,33.85,27.38,35.63,25.32,37.81Z"/><path class="cls-2" d="M19.13,36.18a3.45,3.45,0,0,0-4.23-2.62c-2.82.41-3,7.24-6.35,6.76,0,3.46,6.86,5,7.85-.08l.42-2.11,2.46.34Z"/><path class="cls-15" d="M29.11,62.94a19.77,19.77,0,0,0-6.06,1,6,6,0,0,1-3.81-.06c.39-.82.65-1.3.65-1.3l-.06-.13a7.18,7.18,0,0,0,1.94-.15c1.55-.34,4.54-1.48,7-1.14l0,.21Z"/><path class="cls-13" d="M17.34,92.49a22.59,22.59,0,0,1-1.69,3.35,38.34,38.34,0,0,0-3.91,7.32,3.89,3.89,0,0,0-.08,2.21.42.42,0,0,1,0,.16c-.16.37-1.37.33-1.84.12S8.34,105,8.19,104a.11.11,0,0,1,0,0c.93-.93,1.54-4.19,2.44-7.53a27.38,27.38,0,0,1,2.46-5.71A15.55,15.55,0,0,0,17.34,92.49Z"/><path class="cls-13" d="M26.78,105c0,.28,0,.54,0,.77,0,1,.09,1.21-.86,1.65s-1.22.46-2.29-.39h0a56.82,56.82,0,0,0-.87-8.52,31.4,31.4,0,0,1,.09-6.31,36,36,0,0,1,4.69-.38,51,51,0,0,1-.32,9.25C26.95,103,26.82,104.18,26.78,105Z"/><path class="cls-2" d="M13.85,108.84a.21.21,0,0,1,0,0c0,.16-.22.75-1.18,1-1.12.23-2.25-.91-2.9-1.74s-2.69-1.28-3.11-1.38l-.07,0,.81-1.83a1.29,1.29,0,0,1,.8-.83c.15,1,1.13,1.41,1.59,1.61s1.67.26,1.84-.12a.42.42,0,0,0,0-.16,8.27,8.27,0,0,1,.57,2.38c.12.45.3.16,1,.27A.7.7,0,0,1,13.85,108.84Z"/><path class="cls-3" d="M13.86,109.63a1.81,1.81,0,0,1-1.17.74,1.51,1.51,0,0,1-.61,0,33.52,33.52,0,0,1-3.9-2,4.72,4.72,0,0,0-2-.69,1.06,1.06,0,0,1,.06-.27,3,3,0,0,1,.41-.77c.42.1,2.52.62,3.11,1.38s1.79,2,2.9,1.74c1-.2,1.15-.79,1.18-1A1.24,1.24,0,0,1,13.86,109.63Z"/><path class="cls-15" d="M12.69,110.37c-.94.45-3-.33-3-.33s-3.21-1.53-3.42-1.95,0-.61,0-.61a1.06,1.06,0,0,0-.06.27,4.72,4.72,0,0,1,2,.69,33.52,33.52,0,0,0,3.9,2A1.51,1.51,0,0,0,12.69,110.37Z"/><path class="cls-2" d="M30,107.66a1.43,1.43,0,0,1-.74,1.34,19.09,19.09,0,0,1-3.34.87,4.22,4.22,0,0,1-2.81-.15l-.07,0a5.48,5.48,0,0,1,.21-1.72,1.59,1.59,0,0,1,.39-.88c1.07.86,1.35.82,2.29.39s.88-.69.86-1.65c0-.23,0-.49,0-.77.83.32,1.22,1.32,1.36,1.42s.84-.07,1.44.33A1,1,0,0,1,30,107.66Z"/><path class="cls-3" d="M26.56,110.72c-1.37.81-3.58.72-3.57.09a9.07,9.07,0,0,1,.11-1.09,4.22,4.22,0,0,0,2.81.15,19.09,19.09,0,0,0,3.34-.87,1.43,1.43,0,0,0,.74-1.34C30.61,109.65,27.83,110,26.56,110.72Z"/><path class="cls-3" d="M34.81,54.17s-7.91-8-8.64-8.73-2.88-.64-3.51-.49c-1.32.33-2.32.93-4.11.65-.39-.06-.83-.14-1.26-.24a2.35,2.35,0,0,0-2.51,1,3,3,0,0,0-.28.55c-.46,1.24,0,3.41.68,5s4.16,9.43,4.65,10.53a7.18,7.18,0,0,0,1.94-.15c1.55-.34,4.54-1.48,7-1.14-.09-.79-.63-3.74-.23-5.33.09-.37.18-.74.24-1.1L33.16,58a2.64,2.64,0,0,0,3.92-.36l.44-.6Z"/><path class="cls-16" d="M32.53,91.85c0,1.3-4.85.09-5.55.08-5.25-.06-7.87,2.5-14.26-1.39a13.19,13.19,0,0,1-1.1-.74c2-1.86,3.9-9.65,4.37-15.3a33.38,33.38,0,0,1,3.25-10.64,6,6,0,0,0,3.81.06,19.77,19.77,0,0,1,6.06-1c.85,4.12,2.1,11.51,2.53,16C32.4,86.8,32.52,90.66,32.53,91.85Z"/><path class="cls-1" d="M106.24,33.49a2.87,2.87,0,0,0-2.88-2.85l-27.64.13-21.88.1,0,8.68A1.41,1.41,0,0,0,55.18,41a1.36,1.36,0,0,0,1.43-1.36l0-4.4A1.23,1.23,0,0,1,57.64,34a1.18,1.18,0,0,1,1.31,1.17v2.25a1.36,1.36,0,0,0,1.37,1.35h.47a1.36,1.36,0,0,0,1.35-1.37v-.62a1.18,1.18,0,0,1,1.18-1.19l8.28,0a1.18,1.18,0,0,1,1.19,1.18v3.19A1.51,1.51,0,0,0,74,41.39a1.48,1.48,0,0,0,1.76-1.46V38.67A1.21,1.21,0,0,1,77,37.46l19.88-.09v1.26a1.88,1.88,0,0,0,1.72,1.91,1.81,1.81,0,0,0,1.9-1.82V37.35h0a1.8,1.8,0,0,0,3.58,0h2.18Z"/><path class="cls-17" d="M57.21,48.64c-.8-.45-2.54-2.39-2.44-3.41l3.17,0s-2.07-1.28-1.29-2a20,20,0,0,1,1.89,1c1.31,1.13,2.37,2.15,2.37,2.15s7.4,3.9,9.24,4.29A12.92,12.92,0,0,0,74,48.44l2.31,5.21-4.61,1.41A3.37,3.37,0,0,1,69,54.7L59.85,49A6.58,6.58,0,0,1,57.21,48.64Z"/><path class="cls-2" d="M88.86,35.82a16.26,16.26,0,0,1-1,4.85c-.93.06-2.9.19-3.09.19s-1.85-.87-2-1.48a4,4,0,0,0-1.85-2.23,2.33,2.33,0,0,1-.74-.77,5.18,5.18,0,0,1-.33-.77,13.68,13.68,0,0,0-.65-1.32,1.05,1.05,0,0,1,.42-1.43,11.49,11.49,0,0,1,5.29-1.61C88.36,31.42,88.81,33.87,88.86,35.82Z"/><path class="cls-17" d="M88.44,42A10,10,0,0,0,83,43.3a8,8,0,0,1-1.31.69c-.54-.26-1,0-1.25-.51a25.09,25.09,0,0,1-.7-4.15c0-.36.36-.82,0-1.6a4,4,0,0,1,0-2.13A2.77,2.77,0,0,0,81,37.1a3.88,3.88,0,0,1,1.76,2.28c.14.61,1.74,1.48,2,1.48s2.16-.13,3.09-.19l0,.06Z"/><path class="cls-17" d="M99.82,48.93c.76-.73,4-7,3.6-8.75s-.32-2.27-.06-2.69a6.93,6.93,0,0,0,.7-1.94c0-.25.54-.21.67.42s-.63,1.58-.37,1.62.77-2.26,1.14-2.28a.68.68,0,0,1,.7.33c.05.17.11.37.11.37s.52-.55.86.29a.72.72,0,0,1,.7.6c.34-.1.31.48.26.92a6.11,6.11,0,0,1-1.75,3.29c-.29,1.66-2.87,11-5.22,12.47-1,.63-4,.07-4,.07l-.2-4.88A23.16,23.16,0,0,1,99.82,48.93Z"/><path class="cls-15" d="M106.6,107.68l-.11.07a14,14,0,0,1-3.84,1.61l-.08,0c-.69-2.15-6.05-13.58-7.9-17.12S87.94,79.1,87.94,79.1L84.83,90.8l2,17.39H82.29l0-.11c-.16-1.11-1.48-10.21-2.06-13.81A119.15,119.15,0,0,1,78.74,79a32.39,32.39,0,0,1,1.2-7.95c4.92,2.36,13.25,2.55,16,1.11,1.57,4,2.52,14.58,3.08,16.76C103.67,95.72,106.6,107.68,106.6,107.68Z"/><path class="cls-17" d="M85.82,109.26c0,.12.42.79-.31,1s-2.67,0-2.78-.43c0-.2-.18-.55-.39-1.12a4.74,4.74,0,0,0,.26-.58h3.93l.09.49C86.27,108.82,85.8,109.18,85.82,109.26Z"/><path class="cls-2" d="M87.6,112.36v0c-.19.46-3,.77-4.15.39s-3.5-.46-4.7-.89c-.86-.31-1-.84-.84-1.27a1.14,1.14,0,0,1,.27-.42c.42-.42,2.46-.19,2.89-.73.19-.24.54-.63.86-1a.2.2,0,0,1,.34.07c.22.57.43,1.15.48,1.35.1.42,2,.7,2.78.43s.35-.93.31-1,.45-.45.8-.58a.38.38,0,0,1,.32,0A10.43,10.43,0,0,1,87.6,112.36Z"/><path class="cls-15" d="M87.94,113.76a4.1,4.1,0,0,1-1.54.62,21.31,21.31,0,0,1-3.66-.5c-.74-.19-3.57-.7-4.57-1.62s-.49-1.43-.27-1.65c-.15.43,0,1,.84,1.27,1.19.42,3.5.5,4.7.89s4,.07,4.15-.39v0Z"/><path class="cls-17" d="M106.5,108.68l-.79.4.24,1s-1.05.7-1.79,1.13-1.51-.6-1.51-.6v-1.25a14.43,14.43,0,0,0,3.56-1.46Z"/><path class="cls-2" d="M108.52,112.94h-.09a10.68,10.68,0,0,0-2.88.58,21.63,21.63,0,0,1-4,1.61,1.81,1.81,0,0,1-1.82-1,.33.33,0,0,1,0-.14,1.25,1.25,0,0,1,1.09-1c.49,0,.9,0,1.05-.9s0-1.38.77-1.64v.2s.77,1,1.51.6,1.79-1.13,1.79-1.13l-.25-1,1-.47a3.43,3.43,0,0,1,.49.92C107.47,110.27,108.52,112.94,108.52,112.94Z"/><path class="cls-15" d="M108.26,114.54c-.56.19-1.24.41-1.51.47-.49.1-3.15.64-4.23.95s-2.44.06-2.78-.69a1.33,1.33,0,0,1,0-1.29.33.33,0,0,0,0,.14,1.81,1.81,0,0,0,1.82,1,21.63,21.63,0,0,0,4-1.61,10.68,10.68,0,0,1,2.88-.58h0l.25.5A.78.78,0,0,1,108.26,114.54Z"/><path class="cls-2" d="M95.27,45.41c-1.89-1-6.6-3.06-6.6-3.06l-.38-.74a9.11,9.11,0,0,0-5,1.21,7.32,7.32,0,0,1-1.19.63,32.37,32.37,0,0,1-4.24,1.44,9.53,9.53,0,0,0-5,3.55,23.91,23.91,0,0,1,2.32,5.88,7,7,0,0,0,3-1.87l2,11.74s-.46,4.22-.46,6.83l.12.06c4.92,2.36,13.25,2.55,16,1.11l.16-.09c-.23-3.31-2-9.62-2.39-11.62s1.83-7.18,1.83-7.18a5.61,5.61,0,0,0,2,.56c1-1.06,1-4.11,1.27-5.43A10.13,10.13,0,0,0,95.27,45.41Z"/></g></svg>